<?xml version="1.0" standalone="no"?><!DOCTYPE svg PUBLIC "-//W3C//DTD SVG 1.1//EN" "http://www.w3.org/Graphics/SVG/1.1/DTD/svg11.dtd"><svg t="1590554753886" class="icon" viewBox="0 0 1024 1024" version="1.1" xmlns="http://www.w3.org/2000/svg" p-id="2744" xmlns:xlink="http://www.w3.org/1999/xlink" width="128" height="128"><defs><style type="text/css"></style></defs><path d="M119.046431 488.746568h261.983642v44.821057H119.046431zM647.73665 488.746568h261.983641v44.821057H647.73665z" p-id="2745" fill="#1296db"></path><path d="M880.9144 512.029191v257.383554c0 20.912034-17.013757 37.925791-37.925791 37.925791H181.008958c-20.91325 0-37.927007-17.013757-37.927007-37.925791v-257.383554h-44.821057v257.383554c0 45.70045 37.047614 82.746848 82.748064 82.746848h661.979651c45.70045 0 82.746848-37.047614 82.746848-82.746848v-257.383554h-44.821057z" p-id="2746" fill="#1296db"></path><path d="M627.478991 488.746568v66.594239c0 20.912034-17.013757 37.925791-37.927007 37.925791H434.444367c-20.912034 0-37.927007-17.013757-37.927007-37.925791v-66.594239h-44.821058v66.594239c0 45.70045 37.047614 82.746848 82.748065 82.746848h155.107617c45.70045 0 82.748064-37.047614 82.748065-82.746848v-66.594239h-44.821058zM279.599473 405.023022h465.512596v44.821057H279.599473zM315.970818 330.523978h392.771122v44.821058h-392.771122zM350.027524 256.023718h324.65771v44.821057h-324.65771z" p-id="2747" fill="#1296db"></path><path d="M150.387115 512.029191l137.901683-233.616838 0.39895-0.676269 0.37584-0.689648c12.441644-22.869078 22.780287-40.130962 32.801473-50.04268 7.114203-7.035142 13.064396-9.529796 22.7365-9.529796h349.409638c14.000955 0 26.719918 4.22668 51.998508 57.397712l0.516932 1.088598 0.575315 1.059407 127.640884 235.008298h51.005999L786.48975 255.628417c-23.514939-49.463716-46.776885-82.974298-92.478551-82.974298h-349.409638c-45.70045 0-67.341054 32.294271-94.911174 82.974298L98.339954 512.029191H150.387115z" p-id="2748" fill="#1296db"></path></svg>